<mxfile host="app.diagrams.net" modified="2023-02-09T02:21:52.285Z" agent="5.0 (Macintosh; Intel Mac OS X 10_15_7) AppleWebKit/537.36 (KHTML, like Gecko) Chrome/109.0.0.0 Safari/537.36" etag="lEEvZ0VwSZxFpuEdnLYZ" version="20.8.18" type="github">
  <diagram name="第 1 页" id="Kw1zBCnqG9tHCoyv4tqN">
    <mxGraphModel dx="1063" dy="544" grid="1" gridSize="10" guides="1" tooltips="1" connect="1" arrows="1" fold="1" page="1" pageScale="1" pageWidth="827" pageHeight="1169" math="0" shadow="0">
      <root>
        <mxCell id="0" />
        <mxCell id="1" parent="0" />
        <mxCell id="XZRz8ud4CRZ0wjuStr5h-83" style="edgeStyle=orthogonalEdgeStyle;rounded=0;orthogonalLoop=1;jettySize=auto;html=1;entryX=0.5;entryY=0;entryDx=0;entryDy=0;" parent="1" source="XZRz8ud4CRZ0wjuStr5h-79" target="XZRz8ud4CRZ0wjuStr5h-57" edge="1">
          <mxGeometry relative="1" as="geometry" />
        </mxCell>
        <mxCell id="XZRz8ud4CRZ0wjuStr5h-84" style="edgeStyle=orthogonalEdgeStyle;rounded=0;orthogonalLoop=1;jettySize=auto;html=1;entryX=0.5;entryY=0;entryDx=0;entryDy=0;" parent="1" source="XZRz8ud4CRZ0wjuStr5h-80" target="XZRz8ud4CRZ0wjuStr5h-57" edge="1">
          <mxGeometry relative="1" as="geometry" />
        </mxCell>
        <mxCell id="XZRz8ud4CRZ0wjuStr5h-89" value="" style="group;movable=1;resizable=1;rotatable=1;deletable=1;editable=1;connectable=1;fillColor=#dae8fc;strokeColor=#6c8ebf;" parent="1" vertex="1" connectable="0">
          <mxGeometry x="200" y="1560" width="420" height="200" as="geometry" />
        </mxCell>
        <mxCell id="XZRz8ud4CRZ0wjuStr5h-57" value="判断是否符合持续次数" style="whiteSpace=wrap;html=1;rounded=1;movable=0;resizable=0;rotatable=0;deletable=0;editable=0;connectable=0;" parent="XZRz8ud4CRZ0wjuStr5h-89" vertex="1">
          <mxGeometry x="80" width="120" height="60" as="geometry" />
        </mxCell>
        <mxCell id="XZRz8ud4CRZ0wjuStr5h-59" value="continue" style="whiteSpace=wrap;html=1;rounded=1;movable=0;resizable=0;rotatable=0;deletable=0;editable=0;connectable=0;" parent="XZRz8ud4CRZ0wjuStr5h-89" vertex="1">
          <mxGeometry x="260" width="120" height="60" as="geometry" />
        </mxCell>
        <mxCell id="XZRz8ud4CRZ0wjuStr5h-60" value="" style="edgeStyle=orthogonalEdgeStyle;rounded=0;orthogonalLoop=1;jettySize=auto;html=1;movable=0;resizable=0;rotatable=0;deletable=0;editable=0;connectable=0;" parent="XZRz8ud4CRZ0wjuStr5h-89" source="XZRz8ud4CRZ0wjuStr5h-57" target="XZRz8ud4CRZ0wjuStr5h-59" edge="1">
          <mxGeometry relative="1" as="geometry" />
        </mxCell>
        <mxCell id="XZRz8ud4CRZ0wjuStr5h-66" value="否" style="edgeLabel;html=1;align=center;verticalAlign=middle;resizable=0;points=[];movable=0;rotatable=0;deletable=0;editable=0;connectable=0;" parent="XZRz8ud4CRZ0wjuStr5h-60" vertex="1" connectable="0">
          <mxGeometry x="-0.1803" y="-2" relative="1" as="geometry">
            <mxPoint as="offset" />
          </mxGeometry>
        </mxCell>
        <mxCell id="XZRz8ud4CRZ0wjuStr5h-61" value="判断告警是否失效" style="whiteSpace=wrap;html=1;rounded=1;movable=1;resizable=1;rotatable=1;deletable=1;editable=1;connectable=1;" parent="XZRz8ud4CRZ0wjuStr5h-89" vertex="1">
          <mxGeometry x="80" y="110" width="120" height="60" as="geometry" />
        </mxCell>
        <mxCell id="XZRz8ud4CRZ0wjuStr5h-62" value="" style="edgeStyle=orthogonalEdgeStyle;rounded=0;orthogonalLoop=1;jettySize=auto;html=1;movable=0;resizable=0;rotatable=0;deletable=0;editable=0;connectable=0;" parent="XZRz8ud4CRZ0wjuStr5h-89" source="XZRz8ud4CRZ0wjuStr5h-57" target="XZRz8ud4CRZ0wjuStr5h-61" edge="1">
          <mxGeometry relative="1" as="geometry" />
        </mxCell>
        <mxCell id="XZRz8ud4CRZ0wjuStr5h-69" value="是" style="edgeLabel;html=1;align=center;verticalAlign=middle;resizable=0;points=[];movable=0;rotatable=0;deletable=0;editable=0;connectable=0;" parent="XZRz8ud4CRZ0wjuStr5h-62" vertex="1" connectable="0">
          <mxGeometry x="-0.1498" y="-3" relative="1" as="geometry">
            <mxPoint as="offset" />
          </mxGeometry>
        </mxCell>
        <mxCell id="XZRz8ud4CRZ0wjuStr5h-63" value="continue" style="whiteSpace=wrap;html=1;rounded=1;movable=0;resizable=0;rotatable=0;deletable=0;editable=0;connectable=0;" parent="XZRz8ud4CRZ0wjuStr5h-89" vertex="1">
          <mxGeometry x="260" y="110" width="120" height="60" as="geometry" />
        </mxCell>
        <mxCell id="XZRz8ud4CRZ0wjuStr5h-64" value="" style="edgeStyle=orthogonalEdgeStyle;rounded=0;orthogonalLoop=1;jettySize=auto;html=1;movable=0;resizable=0;rotatable=0;deletable=0;editable=0;connectable=0;" parent="XZRz8ud4CRZ0wjuStr5h-89" source="XZRz8ud4CRZ0wjuStr5h-61" target="XZRz8ud4CRZ0wjuStr5h-63" edge="1">
          <mxGeometry relative="1" as="geometry" />
        </mxCell>
        <mxCell id="XZRz8ud4CRZ0wjuStr5h-65" value="是" style="edgeLabel;html=1;align=center;verticalAlign=middle;resizable=0;points=[];movable=0;rotatable=0;deletable=0;editable=0;connectable=0;" parent="XZRz8ud4CRZ0wjuStr5h-64" vertex="1" connectable="0">
          <mxGeometry x="-0.0322" y="1" relative="1" as="geometry">
            <mxPoint as="offset" />
          </mxGeometry>
        </mxCell>
        <mxCell id="XZRz8ud4CRZ0wjuStr5h-87" value="默认+75s" style="text;html=1;strokeColor=none;fillColor=none;align=center;verticalAlign=middle;whiteSpace=wrap;rounded=0;movable=0;resizable=0;rotatable=0;deletable=0;editable=0;connectable=0;" parent="XZRz8ud4CRZ0wjuStr5h-89" vertex="1">
          <mxGeometry y="125" width="60" height="30" as="geometry" />
        </mxCell>
        <mxCell id="XZRz8ud4CRZ0wjuStr5h-90" value="&lt;font style=&quot;font-size: 20px;&quot;&gt;check.go&lt;/font&gt;" style="text;html=1;strokeColor=none;fillColor=none;align=center;verticalAlign=middle;whiteSpace=wrap;rounded=0;" parent="1" vertex="1">
          <mxGeometry x="650" y="1640" width="60" height="30" as="geometry" />
        </mxCell>
        <mxCell id="XZRz8ud4CRZ0wjuStr5h-91" value="" style="group;fillColor=#f5f5f5;fontColor=#333333;strokeColor=#666666;" parent="1" vertex="1" connectable="0">
          <mxGeometry x="80" y="230" width="730" height="1270" as="geometry" />
        </mxCell>
        <mxCell id="XZRz8ud4CRZ0wjuStr5h-1" value="告警项是否启用" style="rounded=1;whiteSpace=wrap;html=1;" parent="XZRz8ud4CRZ0wjuStr5h-91" vertex="1">
          <mxGeometry x="200" y="120" width="120" height="60" as="geometry" />
        </mxCell>
        <mxCell id="XZRz8ud4CRZ0wjuStr5h-2" value="goroutine创建alarm&lt;br&gt;判断告警项版本" style="rounded=1;whiteSpace=wrap;html=1;" parent="XZRz8ud4CRZ0wjuStr5h-91" vertex="1">
          <mxGeometry x="200" y="250" width="120" height="60" as="geometry" />
        </mxCell>
        <mxCell id="XZRz8ud4CRZ0wjuStr5h-3" value="" style="edgeStyle=orthogonalEdgeStyle;rounded=0;orthogonalLoop=1;jettySize=auto;html=1;" parent="XZRz8ud4CRZ0wjuStr5h-91" source="XZRz8ud4CRZ0wjuStr5h-1" target="XZRz8ud4CRZ0wjuStr5h-2" edge="1">
          <mxGeometry relative="1" as="geometry" />
        </mxCell>
        <mxCell id="XZRz8ud4CRZ0wjuStr5h-4" value="是" style="edgeLabel;html=1;align=center;verticalAlign=middle;resizable=0;points=[];" parent="XZRz8ud4CRZ0wjuStr5h-3" vertex="1" connectable="0">
          <mxGeometry x="-0.1298" relative="1" as="geometry">
            <mxPoint as="offset" />
          </mxGeometry>
        </mxCell>
        <mxCell id="XZRz8ud4CRZ0wjuStr5h-5" value="使用检查周期为开始时间查询数据" style="rounded=1;whiteSpace=wrap;html=1;" parent="XZRz8ud4CRZ0wjuStr5h-91" vertex="1">
          <mxGeometry y="340" width="120" height="60" as="geometry" />
        </mxCell>
        <mxCell id="XZRz8ud4CRZ0wjuStr5h-7" style="edgeStyle=orthogonalEdgeStyle;rounded=0;orthogonalLoop=1;jettySize=auto;html=1;entryX=0.5;entryY=0;entryDx=0;entryDy=0;" parent="XZRz8ud4CRZ0wjuStr5h-91" source="XZRz8ud4CRZ0wjuStr5h-2" target="XZRz8ud4CRZ0wjuStr5h-5" edge="1">
          <mxGeometry relative="1" as="geometry" />
        </mxCell>
        <mxCell id="XZRz8ud4CRZ0wjuStr5h-8" value="v1" style="edgeLabel;html=1;align=center;verticalAlign=middle;resizable=0;points=[];" parent="XZRz8ud4CRZ0wjuStr5h-7" vertex="1" connectable="0">
          <mxGeometry x="0.133" y="-1" relative="1" as="geometry">
            <mxPoint as="offset" />
          </mxGeometry>
        </mxCell>
        <mxCell id="XZRz8ud4CRZ0wjuStr5h-6" value="使用持续时间为开始时间查询数据" style="rounded=1;whiteSpace=wrap;html=1;" parent="XZRz8ud4CRZ0wjuStr5h-91" vertex="1">
          <mxGeometry x="410" y="330" width="120" height="60" as="geometry" />
        </mxCell>
        <mxCell id="XZRz8ud4CRZ0wjuStr5h-9" style="edgeStyle=orthogonalEdgeStyle;rounded=0;orthogonalLoop=1;jettySize=auto;html=1;entryX=0.5;entryY=0;entryDx=0;entryDy=0;" parent="XZRz8ud4CRZ0wjuStr5h-91" source="XZRz8ud4CRZ0wjuStr5h-2" target="XZRz8ud4CRZ0wjuStr5h-6" edge="1">
          <mxGeometry relative="1" as="geometry" />
        </mxCell>
        <mxCell id="XZRz8ud4CRZ0wjuStr5h-10" value="v2" style="edgeLabel;html=1;align=center;verticalAlign=middle;resizable=0;points=[];" parent="XZRz8ud4CRZ0wjuStr5h-9" vertex="1" connectable="0">
          <mxGeometry x="0.2717" y="3" relative="1" as="geometry">
            <mxPoint as="offset" />
          </mxGeometry>
        </mxCell>
        <mxCell id="XZRz8ud4CRZ0wjuStr5h-12" value="" style="edgeStyle=orthogonalEdgeStyle;rounded=0;orthogonalLoop=1;jettySize=auto;html=1;" parent="XZRz8ud4CRZ0wjuStr5h-91" source="XZRz8ud4CRZ0wjuStr5h-11" target="XZRz8ud4CRZ0wjuStr5h-1" edge="1">
          <mxGeometry relative="1" as="geometry" />
        </mxCell>
        <mxCell id="XZRz8ud4CRZ0wjuStr5h-11" value="遍历业务配置的告警项" style="rounded=1;whiteSpace=wrap;html=1;" parent="XZRz8ud4CRZ0wjuStr5h-91" vertex="1">
          <mxGeometry x="200" width="120" height="60" as="geometry" />
        </mxCell>
        <mxCell id="XZRz8ud4CRZ0wjuStr5h-14" value="continue" style="rounded=1;whiteSpace=wrap;html=1;" parent="XZRz8ud4CRZ0wjuStr5h-91" vertex="1">
          <mxGeometry x="390" y="120" width="120" height="60" as="geometry" />
        </mxCell>
        <mxCell id="XZRz8ud4CRZ0wjuStr5h-15" value="否" style="edgeStyle=orthogonalEdgeStyle;rounded=0;orthogonalLoop=1;jettySize=auto;html=1;" parent="XZRz8ud4CRZ0wjuStr5h-91" source="XZRz8ud4CRZ0wjuStr5h-1" target="XZRz8ud4CRZ0wjuStr5h-14" edge="1">
          <mxGeometry relative="1" as="geometry" />
        </mxCell>
        <mxCell id="XZRz8ud4CRZ0wjuStr5h-16" value="nodata" style="whiteSpace=wrap;html=1;rounded=1;" parent="XZRz8ud4CRZ0wjuStr5h-91" vertex="1">
          <mxGeometry y="450" width="120" height="60" as="geometry" />
        </mxCell>
        <mxCell id="XZRz8ud4CRZ0wjuStr5h-17" value="" style="edgeStyle=orthogonalEdgeStyle;rounded=0;orthogonalLoop=1;jettySize=auto;html=1;" parent="XZRz8ud4CRZ0wjuStr5h-91" source="XZRz8ud4CRZ0wjuStr5h-5" target="XZRz8ud4CRZ0wjuStr5h-16" edge="1">
          <mxGeometry relative="1" as="geometry" />
        </mxCell>
        <mxCell id="XZRz8ud4CRZ0wjuStr5h-19" value="创建无数据上报alarm" style="whiteSpace=wrap;html=1;rounded=1;" parent="XZRz8ud4CRZ0wjuStr5h-91" vertex="1">
          <mxGeometry x="180" y="450" width="120" height="60" as="geometry" />
        </mxCell>
        <mxCell id="XZRz8ud4CRZ0wjuStr5h-78" value="是" style="edgeStyle=orthogonalEdgeStyle;rounded=0;orthogonalLoop=1;jettySize=auto;html=1;" parent="XZRz8ud4CRZ0wjuStr5h-91" source="XZRz8ud4CRZ0wjuStr5h-16" target="XZRz8ud4CRZ0wjuStr5h-19" edge="1">
          <mxGeometry relative="1" as="geometry" />
        </mxCell>
        <mxCell id="XZRz8ud4CRZ0wjuStr5h-22" value="只检查最后一个数据" style="whiteSpace=wrap;html=1;rounded=1;" parent="XZRz8ud4CRZ0wjuStr5h-91" vertex="1">
          <mxGeometry y="560" width="120" height="60" as="geometry" />
        </mxCell>
        <mxCell id="XZRz8ud4CRZ0wjuStr5h-23" value="" style="edgeStyle=orthogonalEdgeStyle;rounded=0;orthogonalLoop=1;jettySize=auto;html=1;" parent="XZRz8ud4CRZ0wjuStr5h-91" source="XZRz8ud4CRZ0wjuStr5h-16" target="XZRz8ud4CRZ0wjuStr5h-22" edge="1">
          <mxGeometry relative="1" as="geometry" />
        </mxCell>
        <mxCell id="XZRz8ud4CRZ0wjuStr5h-24" value="否" style="edgeLabel;html=1;align=center;verticalAlign=middle;resizable=0;points=[];" parent="XZRz8ud4CRZ0wjuStr5h-23" vertex="1" connectable="0">
          <mxGeometry x="-0.269" y="-3" relative="1" as="geometry">
            <mxPoint as="offset" />
          </mxGeometry>
        </mxCell>
        <mxCell id="XZRz8ud4CRZ0wjuStr5h-25" value="最后一个数据同阈值比较" style="whiteSpace=wrap;html=1;rounded=1;" parent="XZRz8ud4CRZ0wjuStr5h-91" vertex="1">
          <mxGeometry y="670" width="120" height="60" as="geometry" />
        </mxCell>
        <mxCell id="XZRz8ud4CRZ0wjuStr5h-26" value="" style="edgeStyle=orthogonalEdgeStyle;rounded=0;orthogonalLoop=1;jettySize=auto;html=1;" parent="XZRz8ud4CRZ0wjuStr5h-91" source="XZRz8ud4CRZ0wjuStr5h-22" target="XZRz8ud4CRZ0wjuStr5h-25" edge="1">
          <mxGeometry relative="1" as="geometry" />
        </mxCell>
        <mxCell id="XZRz8ud4CRZ0wjuStr5h-27" value="创建alarm" style="whiteSpace=wrap;html=1;rounded=1;" parent="XZRz8ud4CRZ0wjuStr5h-91" vertex="1">
          <mxGeometry y="780" width="120" height="60" as="geometry" />
        </mxCell>
        <mxCell id="XZRz8ud4CRZ0wjuStr5h-28" value="" style="edgeStyle=orthogonalEdgeStyle;rounded=0;orthogonalLoop=1;jettySize=auto;html=1;" parent="XZRz8ud4CRZ0wjuStr5h-91" source="XZRz8ud4CRZ0wjuStr5h-25" target="XZRz8ud4CRZ0wjuStr5h-27" edge="1">
          <mxGeometry relative="1" as="geometry" />
        </mxCell>
        <mxCell id="XZRz8ud4CRZ0wjuStr5h-76" value="大于阈值" style="edgeLabel;html=1;align=center;verticalAlign=middle;resizable=0;points=[];" parent="XZRz8ud4CRZ0wjuStr5h-28" vertex="1" connectable="0">
          <mxGeometry x="-0.2063" y="-4" relative="1" as="geometry">
            <mxPoint as="offset" />
          </mxGeometry>
        </mxCell>
        <mxCell id="XZRz8ud4CRZ0wjuStr5h-29" value="更新annotation" style="whiteSpace=wrap;html=1;rounded=1;" parent="XZRz8ud4CRZ0wjuStr5h-91" vertex="1">
          <mxGeometry y="880" width="120" height="60" as="geometry" />
        </mxCell>
        <mxCell id="XZRz8ud4CRZ0wjuStr5h-30" value="" style="edgeStyle=orthogonalEdgeStyle;rounded=0;orthogonalLoop=1;jettySize=auto;html=1;" parent="XZRz8ud4CRZ0wjuStr5h-91" source="XZRz8ud4CRZ0wjuStr5h-27" target="XZRz8ud4CRZ0wjuStr5h-29" edge="1">
          <mxGeometry relative="1" as="geometry" />
        </mxCell>
        <mxCell id="XZRz8ud4CRZ0wjuStr5h-31" value="" style="edgeStyle=orthogonalEdgeStyle;rounded=0;orthogonalLoop=1;jettySize=auto;html=1;" parent="XZRz8ud4CRZ0wjuStr5h-91" source="XZRz8ud4CRZ0wjuStr5h-33" edge="1">
          <mxGeometry relative="1" as="geometry">
            <mxPoint x="610.0000000000002" y="480.0000000000002" as="targetPoint" />
          </mxGeometry>
        </mxCell>
        <mxCell id="XZRz8ud4CRZ0wjuStr5h-32" value="是" style="edgeLabel;html=1;align=center;verticalAlign=middle;resizable=0;points=[];" parent="XZRz8ud4CRZ0wjuStr5h-31" vertex="1" connectable="0">
          <mxGeometry x="-0.3113" y="-2" relative="1" as="geometry">
            <mxPoint as="offset" />
          </mxGeometry>
        </mxCell>
        <mxCell id="XZRz8ud4CRZ0wjuStr5h-33" value="nodata" style="whiteSpace=wrap;html=1;rounded=1;" parent="XZRz8ud4CRZ0wjuStr5h-91" vertex="1">
          <mxGeometry x="410" y="450" width="120" height="60" as="geometry" />
        </mxCell>
        <mxCell id="XZRz8ud4CRZ0wjuStr5h-35" value="" style="edgeStyle=orthogonalEdgeStyle;rounded=0;orthogonalLoop=1;jettySize=auto;html=1;" parent="XZRz8ud4CRZ0wjuStr5h-91" source="XZRz8ud4CRZ0wjuStr5h-6" target="XZRz8ud4CRZ0wjuStr5h-33" edge="1">
          <mxGeometry relative="1" as="geometry" />
        </mxCell>
        <mxCell id="XZRz8ud4CRZ0wjuStr5h-34" value="创建无数据上报alarm" style="whiteSpace=wrap;html=1;rounded=1;" parent="XZRz8ud4CRZ0wjuStr5h-91" vertex="1">
          <mxGeometry x="580" y="450" width="120" height="60" as="geometry" />
        </mxCell>
        <mxCell id="XZRz8ud4CRZ0wjuStr5h-36" value="根据触发函数比较数据" style="whiteSpace=wrap;html=1;rounded=1;" parent="XZRz8ud4CRZ0wjuStr5h-91" vertex="1">
          <mxGeometry x="410" y="560" width="120" height="60" as="geometry" />
        </mxCell>
        <mxCell id="XZRz8ud4CRZ0wjuStr5h-37" value="" style="edgeStyle=orthogonalEdgeStyle;rounded=0;orthogonalLoop=1;jettySize=auto;html=1;" parent="XZRz8ud4CRZ0wjuStr5h-91" source="XZRz8ud4CRZ0wjuStr5h-33" target="XZRz8ud4CRZ0wjuStr5h-36" edge="1">
          <mxGeometry relative="1" as="geometry" />
        </mxCell>
        <mxCell id="XZRz8ud4CRZ0wjuStr5h-38" value="continue" style="whiteSpace=wrap;html=1;rounded=1;" parent="XZRz8ud4CRZ0wjuStr5h-91" vertex="1">
          <mxGeometry x="610" y="560" width="120" height="60" as="geometry" />
        </mxCell>
        <mxCell id="XZRz8ud4CRZ0wjuStr5h-39" value="" style="edgeStyle=orthogonalEdgeStyle;rounded=0;orthogonalLoop=1;jettySize=auto;html=1;" parent="XZRz8ud4CRZ0wjuStr5h-91" source="XZRz8ud4CRZ0wjuStr5h-36" target="XZRz8ud4CRZ0wjuStr5h-38" edge="1">
          <mxGeometry relative="1" as="geometry" />
        </mxCell>
        <mxCell id="XZRz8ud4CRZ0wjuStr5h-73" value="小于阈值" style="edgeLabel;html=1;align=center;verticalAlign=middle;resizable=0;points=[];" parent="XZRz8ud4CRZ0wjuStr5h-39" vertex="1" connectable="0">
          <mxGeometry x="-0.1352" y="1" relative="1" as="geometry">
            <mxPoint as="offset" />
          </mxGeometry>
        </mxCell>
        <mxCell id="XZRz8ud4CRZ0wjuStr5h-40" value="创建alarm" style="whiteSpace=wrap;html=1;rounded=1;" parent="XZRz8ud4CRZ0wjuStr5h-91" vertex="1">
          <mxGeometry x="410" y="670" width="120" height="60" as="geometry" />
        </mxCell>
        <mxCell id="XZRz8ud4CRZ0wjuStr5h-41" value="" style="edgeStyle=orthogonalEdgeStyle;rounded=0;orthogonalLoop=1;jettySize=auto;html=1;" parent="XZRz8ud4CRZ0wjuStr5h-91" source="XZRz8ud4CRZ0wjuStr5h-36" target="XZRz8ud4CRZ0wjuStr5h-40" edge="1">
          <mxGeometry relative="1" as="geometry" />
        </mxCell>
        <mxCell id="XZRz8ud4CRZ0wjuStr5h-72" value="大于阈值" style="edgeLabel;html=1;align=center;verticalAlign=middle;resizable=0;points=[];" parent="XZRz8ud4CRZ0wjuStr5h-41" vertex="1" connectable="0">
          <mxGeometry x="-0.2952" relative="1" as="geometry">
            <mxPoint as="offset" />
          </mxGeometry>
        </mxCell>
        <mxCell id="XZRz8ud4CRZ0wjuStr5h-43" value="更新annotation" style="whiteSpace=wrap;html=1;rounded=1;" parent="XZRz8ud4CRZ0wjuStr5h-91" vertex="1">
          <mxGeometry x="410" y="780" width="120" height="60" as="geometry" />
        </mxCell>
        <mxCell id="XZRz8ud4CRZ0wjuStr5h-44" value="" style="edgeStyle=orthogonalEdgeStyle;rounded=0;orthogonalLoop=1;jettySize=auto;html=1;" parent="XZRz8ud4CRZ0wjuStr5h-91" source="XZRz8ud4CRZ0wjuStr5h-40" target="XZRz8ud4CRZ0wjuStr5h-43" edge="1">
          <mxGeometry relative="1" as="geometry" />
        </mxCell>
        <mxCell id="XZRz8ud4CRZ0wjuStr5h-51" value="" style="edgeStyle=orthogonalEdgeStyle;rounded=0;orthogonalLoop=1;jettySize=auto;html=1;" parent="XZRz8ud4CRZ0wjuStr5h-91" source="XZRz8ud4CRZ0wjuStr5h-45" edge="1">
          <mxGeometry relative="1" as="geometry">
            <mxPoint x="260.0000000000002" y="1100" as="targetPoint" />
          </mxGeometry>
        </mxCell>
        <mxCell id="XZRz8ud4CRZ0wjuStr5h-52" value="否" style="edgeLabel;html=1;align=center;verticalAlign=middle;resizable=0;points=[];" parent="XZRz8ud4CRZ0wjuStr5h-51" vertex="1" connectable="0">
          <mxGeometry x="-0.1942" y="-1" relative="1" as="geometry">
            <mxPoint as="offset" />
          </mxGeometry>
        </mxCell>
        <mxCell id="XZRz8ud4CRZ0wjuStr5h-45" value="判断是否被抑制" style="rounded=1;whiteSpace=wrap;html=1;" parent="XZRz8ud4CRZ0wjuStr5h-91" vertex="1">
          <mxGeometry x="200" y="990" width="120" height="60" as="geometry" />
        </mxCell>
        <mxCell id="XZRz8ud4CRZ0wjuStr5h-46" style="edgeStyle=orthogonalEdgeStyle;rounded=0;orthogonalLoop=1;jettySize=auto;html=1;entryX=0.5;entryY=0;entryDx=0;entryDy=0;" parent="XZRz8ud4CRZ0wjuStr5h-91" source="XZRz8ud4CRZ0wjuStr5h-29" target="XZRz8ud4CRZ0wjuStr5h-45" edge="1">
          <mxGeometry relative="1" as="geometry" />
        </mxCell>
        <mxCell id="XZRz8ud4CRZ0wjuStr5h-47" style="edgeStyle=orthogonalEdgeStyle;rounded=0;orthogonalLoop=1;jettySize=auto;html=1;entryX=0.5;entryY=0;entryDx=0;entryDy=0;" parent="XZRz8ud4CRZ0wjuStr5h-91" source="XZRz8ud4CRZ0wjuStr5h-43" target="XZRz8ud4CRZ0wjuStr5h-45" edge="1">
          <mxGeometry relative="1" as="geometry" />
        </mxCell>
        <mxCell id="XZRz8ud4CRZ0wjuStr5h-49" value="从alarms里剔除" style="whiteSpace=wrap;html=1;rounded=1;" parent="XZRz8ud4CRZ0wjuStr5h-91" vertex="1">
          <mxGeometry x="380" y="990" width="120" height="60" as="geometry" />
        </mxCell>
        <mxCell id="XZRz8ud4CRZ0wjuStr5h-50" value="是" style="edgeStyle=orthogonalEdgeStyle;rounded=0;orthogonalLoop=1;jettySize=auto;html=1;" parent="XZRz8ud4CRZ0wjuStr5h-91" source="XZRz8ud4CRZ0wjuStr5h-45" target="XZRz8ud4CRZ0wjuStr5h-49" edge="1">
          <mxGeometry relative="1" as="geometry" />
        </mxCell>
        <mxCell id="XZRz8ud4CRZ0wjuStr5h-53" value="判断是新告警还是旧告警" style="whiteSpace=wrap;html=1;rounded=1;" parent="XZRz8ud4CRZ0wjuStr5h-91" vertex="1">
          <mxGeometry x="200" y="1100" width="120" height="60" as="geometry" />
        </mxCell>
        <mxCell id="XZRz8ud4CRZ0wjuStr5h-74" value="continue" style="whiteSpace=wrap;html=1;rounded=1;" parent="XZRz8ud4CRZ0wjuStr5h-91" vertex="1">
          <mxGeometry x="180" y="670" width="120" height="60" as="geometry" />
        </mxCell>
        <mxCell id="XZRz8ud4CRZ0wjuStr5h-75" value="小于阈值" style="edgeStyle=orthogonalEdgeStyle;rounded=0;orthogonalLoop=1;jettySize=auto;html=1;" parent="XZRz8ud4CRZ0wjuStr5h-91" source="XZRz8ud4CRZ0wjuStr5h-25" target="XZRz8ud4CRZ0wjuStr5h-74" edge="1">
          <mxGeometry relative="1" as="geometry" />
        </mxCell>
        <mxCell id="XZRz8ud4CRZ0wjuStr5h-79" value="创建新的event" style="rounded=1;whiteSpace=wrap;html=1;" parent="XZRz8ud4CRZ0wjuStr5h-91" vertex="1">
          <mxGeometry x="120" y="1210" width="120" height="60" as="geometry" />
        </mxCell>
        <mxCell id="XZRz8ud4CRZ0wjuStr5h-81" style="edgeStyle=orthogonalEdgeStyle;rounded=0;orthogonalLoop=1;jettySize=auto;html=1;entryX=0.5;entryY=0;entryDx=0;entryDy=0;" parent="XZRz8ud4CRZ0wjuStr5h-91" source="XZRz8ud4CRZ0wjuStr5h-53" target="XZRz8ud4CRZ0wjuStr5h-79" edge="1">
          <mxGeometry relative="1" as="geometry" />
        </mxCell>
        <mxCell id="XZRz8ud4CRZ0wjuStr5h-85" value="新" style="edgeLabel;html=1;align=center;verticalAlign=middle;resizable=0;points=[];" parent="XZRz8ud4CRZ0wjuStr5h-81" vertex="1" connectable="0">
          <mxGeometry x="-0.0364" y="-2" relative="1" as="geometry">
            <mxPoint as="offset" />
          </mxGeometry>
        </mxCell>
        <mxCell id="XZRz8ud4CRZ0wjuStr5h-80" value="更新event触发时间" style="rounded=1;whiteSpace=wrap;html=1;" parent="XZRz8ud4CRZ0wjuStr5h-91" vertex="1">
          <mxGeometry x="290" y="1210" width="120" height="60" as="geometry" />
        </mxCell>
        <mxCell id="XZRz8ud4CRZ0wjuStr5h-82" style="edgeStyle=orthogonalEdgeStyle;rounded=0;orthogonalLoop=1;jettySize=auto;html=1;entryX=0.5;entryY=0;entryDx=0;entryDy=0;" parent="XZRz8ud4CRZ0wjuStr5h-91" source="XZRz8ud4CRZ0wjuStr5h-53" target="XZRz8ud4CRZ0wjuStr5h-80" edge="1">
          <mxGeometry relative="1" as="geometry" />
        </mxCell>
        <mxCell id="XZRz8ud4CRZ0wjuStr5h-86" value="旧" style="edgeLabel;html=1;align=center;verticalAlign=middle;resizable=0;points=[];" parent="XZRz8ud4CRZ0wjuStr5h-82" vertex="1" connectable="0">
          <mxGeometry x="0.01" y="-1" relative="1" as="geometry">
            <mxPoint as="offset" />
          </mxGeometry>
        </mxCell>
        <mxCell id="6h-peByDU7JdLdcF4C6v-1" value="根据告警项的检查周期定时拉取数据" style="text;html=1;strokeColor=none;fillColor=none;align=center;verticalAlign=middle;whiteSpace=wrap;rounded=0;" parent="XZRz8ud4CRZ0wjuStr5h-91" vertex="1">
          <mxGeometry x="195" y="325" width="130" height="30" as="geometry" />
        </mxCell>
        <mxCell id="XZRz8ud4CRZ0wjuStr5h-93" value="&lt;font style=&quot;font-size: 20px;&quot;&gt;schedule.go&lt;/font&gt;" style="text;html=1;strokeColor=none;fillColor=none;align=center;verticalAlign=middle;whiteSpace=wrap;rounded=0;" parent="1" vertex="1">
          <mxGeometry x="850" y="750" width="110" height="30" as="geometry" />
        </mxCell>
        <mxCell id="XZRz8ud4CRZ0wjuStr5h-97" value="notify.go" style="text;html=1;strokeColor=none;fillColor=none;align=center;verticalAlign=middle;whiteSpace=wrap;rounded=0;fontSize=20;" parent="1" vertex="1">
          <mxGeometry x="550" y="1910" width="60" height="30" as="geometry" />
        </mxCell>
        <mxCell id="XZRz8ud4CRZ0wjuStr5h-99" value="fire.go" style="text;html=1;strokeColor=none;fillColor=none;align=center;verticalAlign=middle;whiteSpace=wrap;rounded=0;fontSize=20;" parent="1" vertex="1">
          <mxGeometry x="510" y="2310" width="60" height="30" as="geometry" />
        </mxCell>
        <mxCell id="XZRz8ud4CRZ0wjuStr5h-111" value="" style="group;fillColor=#d5e8d4;strokeColor=#82b366;container=0;" parent="1" vertex="1" connectable="0">
          <mxGeometry x="250" y="1790" width="190" height="290" as="geometry" />
        </mxCell>
        <mxCell id="XZRz8ud4CRZ0wjuStr5h-123" style="edgeStyle=orthogonalEdgeStyle;rounded=0;orthogonalLoop=1;jettySize=auto;html=1;entryX=0.5;entryY=0;entryDx=0;entryDy=0;fontSize=12;" parent="1" source="XZRz8ud4CRZ0wjuStr5h-67" target="XZRz8ud4CRZ0wjuStr5h-112" edge="1">
          <mxGeometry relative="1" as="geometry" />
        </mxCell>
        <mxCell id="XZRz8ud4CRZ0wjuStr5h-67" value="goroutine&lt;br&gt;调用发送消息模块" style="whiteSpace=wrap;html=1;rounded=1;" parent="1" vertex="1">
          <mxGeometry x="280" y="1980" width="120" height="60" as="geometry" />
        </mxCell>
        <mxCell id="XZRz8ud4CRZ0wjuStr5h-121" value="" style="edgeStyle=orthogonalEdgeStyle;rounded=0;orthogonalLoop=1;jettySize=auto;html=1;fontSize=12;" parent="1" source="XZRz8ud4CRZ0wjuStr5h-96" target="XZRz8ud4CRZ0wjuStr5h-120" edge="1">
          <mxGeometry relative="1" as="geometry" />
        </mxCell>
        <mxCell id="XZRz8ud4CRZ0wjuStr5h-125" value="" style="edgeStyle=orthogonalEdgeStyle;rounded=0;orthogonalLoop=1;jettySize=auto;html=1;fontSize=12;" parent="1" source="XZRz8ud4CRZ0wjuStr5h-96" target="XZRz8ud4CRZ0wjuStr5h-124" edge="1">
          <mxGeometry relative="1" as="geometry" />
        </mxCell>
        <mxCell id="XZRz8ud4CRZ0wjuStr5h-96" value="&lt;font style=&quot;font-size: 12px;&quot;&gt;设置告警通道&lt;/font&gt;" style="whiteSpace=wrap;html=1;rounded=1;fontSize=20;" parent="1" vertex="1">
          <mxGeometry x="280" y="1805" width="120" height="60" as="geometry" />
        </mxCell>
        <mxCell id="XZRz8ud4CRZ0wjuStr5h-115" value="" style="edgeStyle=orthogonalEdgeStyle;rounded=0;orthogonalLoop=1;jettySize=auto;html=1;fontSize=12;" parent="1" source="XZRz8ud4CRZ0wjuStr5h-61" target="XZRz8ud4CRZ0wjuStr5h-96" edge="1">
          <mxGeometry relative="1" as="geometry" />
        </mxCell>
        <mxCell id="XZRz8ud4CRZ0wjuStr5h-126" value="否" style="edgeLabel;html=1;align=center;verticalAlign=middle;resizable=0;points=[];fontSize=12;" parent="XZRz8ud4CRZ0wjuStr5h-115" vertex="1" connectable="0">
          <mxGeometry x="-0.3311" y="2" relative="1" as="geometry">
            <mxPoint as="offset" />
          </mxGeometry>
        </mxCell>
        <mxCell id="XZRz8ud4CRZ0wjuStr5h-118" value="" style="group;fillColor=#f8cecc;strokeColor=#b85450;" parent="1" vertex="1" connectable="0">
          <mxGeometry x="250" y="2120" width="180" height="480" as="geometry" />
        </mxCell>
        <mxCell id="XZRz8ud4CRZ0wjuStr5h-100" value="一致性hash判断是不是当前alerter节点发送此条告警" style="rounded=1;whiteSpace=wrap;html=1;fontSize=12;" parent="XZRz8ud4CRZ0wjuStr5h-118" vertex="1">
          <mxGeometry y="91.91489361702126" width="180" height="61.27659574468085" as="geometry" />
        </mxCell>
        <mxCell id="XZRz8ud4CRZ0wjuStr5h-102" value="将所有告警记录到detail表" style="whiteSpace=wrap;html=1;rounded=1;fontSize=12;" parent="XZRz8ud4CRZ0wjuStr5h-118" vertex="1">
          <mxGeometry y="306.3829787234042" width="180" height="61.27659574468085" as="geometry" />
        </mxCell>
        <mxCell id="XZRz8ud4CRZ0wjuStr5h-104" value="将发送消息记录存储到messages库" style="whiteSpace=wrap;html=1;rounded=1;" parent="XZRz8ud4CRZ0wjuStr5h-118" vertex="1">
          <mxGeometry y="418.7234042553191" width="180" height="61.27659574468085" as="geometry" />
        </mxCell>
        <mxCell id="XZRz8ud4CRZ0wjuStr5h-105" value="" style="edgeStyle=orthogonalEdgeStyle;rounded=0;orthogonalLoop=1;jettySize=auto;html=1;fontSize=12;" parent="XZRz8ud4CRZ0wjuStr5h-118" source="XZRz8ud4CRZ0wjuStr5h-102" target="XZRz8ud4CRZ0wjuStr5h-104" edge="1">
          <mxGeometry relative="1" as="geometry" />
        </mxCell>
        <mxCell id="XZRz8ud4CRZ0wjuStr5h-109" value="" style="edgeStyle=orthogonalEdgeStyle;rounded=0;orthogonalLoop=1;jettySize=auto;html=1;fontSize=12;" parent="XZRz8ud4CRZ0wjuStr5h-118" source="XZRz8ud4CRZ0wjuStr5h-107" target="XZRz8ud4CRZ0wjuStr5h-102" edge="1">
          <mxGeometry relative="1" as="geometry" />
        </mxCell>
        <mxCell id="XZRz8ud4CRZ0wjuStr5h-107" value="goroutine&lt;br&gt;发送消息" style="rounded=1;whiteSpace=wrap;html=1;fontSize=12;" parent="XZRz8ud4CRZ0wjuStr5h-118" vertex="1">
          <mxGeometry y="204.25531914893617" width="180" height="61.27659574468085" as="geometry" />
        </mxCell>
        <mxCell id="XZRz8ud4CRZ0wjuStr5h-108" value="" style="edgeStyle=orthogonalEdgeStyle;rounded=0;orthogonalLoop=1;jettySize=auto;html=1;fontSize=12;" parent="XZRz8ud4CRZ0wjuStr5h-118" source="XZRz8ud4CRZ0wjuStr5h-100" target="XZRz8ud4CRZ0wjuStr5h-107" edge="1">
          <mxGeometry relative="1" as="geometry" />
        </mxCell>
        <mxCell id="XZRz8ud4CRZ0wjuStr5h-114" value="" style="edgeStyle=orthogonalEdgeStyle;rounded=0;orthogonalLoop=1;jettySize=auto;html=1;fontSize=12;" parent="XZRz8ud4CRZ0wjuStr5h-118" source="XZRz8ud4CRZ0wjuStr5h-112" target="XZRz8ud4CRZ0wjuStr5h-100" edge="1">
          <mxGeometry relative="1" as="geometry" />
        </mxCell>
        <mxCell id="XZRz8ud4CRZ0wjuStr5h-112" value="将告警项组装成人-应接收告警" style="rounded=1;whiteSpace=wrap;html=1;fontSize=12;" parent="XZRz8ud4CRZ0wjuStr5h-118" vertex="1">
          <mxGeometry width="180" height="61.27659574468085" as="geometry" />
        </mxCell>
        <mxCell id="XZRz8ud4CRZ0wjuStr5h-122" value="" style="edgeStyle=orthogonalEdgeStyle;rounded=0;orthogonalLoop=1;jettySize=auto;html=1;fontSize=12;" parent="1" source="XZRz8ud4CRZ0wjuStr5h-120" target="XZRz8ud4CRZ0wjuStr5h-67" edge="1">
          <mxGeometry relative="1" as="geometry" />
        </mxCell>
        <mxCell id="XZRz8ud4CRZ0wjuStr5h-120" value="判断上次接收时间是否小于5m（未处理的不发送，新告警会发送）" style="rounded=1;whiteSpace=wrap;html=1;fontSize=12;" parent="1" vertex="1">
          <mxGeometry x="280" y="1895" width="120" height="60" as="geometry" />
        </mxCell>
        <mxCell id="XZRz8ud4CRZ0wjuStr5h-124" value="一批里有一条满足的就会发送" style="text;html=1;strokeColor=none;fillColor=none;align=center;verticalAlign=middle;whiteSpace=wrap;rounded=0;fontSize=12;" parent="1" vertex="1">
          <mxGeometry x="440" y="1820" width="170" height="30" as="geometry" />
        </mxCell>
        <mxCell id="XZRz8ud4CRZ0wjuStr5h-128" value="判断业务的所有endpoint" style="text;html=1;strokeColor=none;fillColor=none;align=center;verticalAlign=middle;whiteSpace=wrap;rounded=0;fontSize=12;" parent="1" vertex="1">
          <mxGeometry x="840" y="620" width="150" height="30" as="geometry" />
        </mxCell>
      </root>
    </mxGraphModel>
  </diagram>
</mxfile>
